<?xml version="1.0" encoding="UTF-8"?>
<!DOCTYPE svg PUBLIC "-//W3C//DTD SVG 1.1//EN" "http://www.w3.org/Graphics/SVG/1.1/DTD/svg11.dtd">
<svg xmlns="http://www.w3.org/2000/svg" version="1.1" width="400px" height="300px" style="shape-rendering:geometricPrecision; text-rendering:geometricPrecision; image-rendering:optimizeQuality; fill-rule:evenodd; clip-rule:evenodd" xmlns:xlink="http://www.w3.org/1999/xlink">
<g><path style="opacity:1" fill="#1f053b" d="M -0.5,-0.5 C 132.833,-0.5 266.167,-0.5 399.5,-0.5C 399.5,99.5 399.5,199.5 399.5,299.5C 266.167,299.5 132.833,299.5 -0.5,299.5C -0.5,199.5 -0.5,99.5 -0.5,-0.5 Z"/></g>
<g><path style="opacity:1" fill="#1ac9c5" d="M 200.5,120.5 C 205.833,128.5 211.167,136.5 216.5,144.5C 216.5,144.833 216.5,145.167 216.5,145.5C 210.97,149.097 205.304,152.43 199.5,155.5C 199.172,143.655 199.505,131.988 200.5,120.5 Z"/></g>
<g><path style="opacity:1" fill="#904ea5" d="M 144.5,122.5 C 143.475,122.897 143.308,123.563 144,124.5C 154.369,134.702 164.535,145.035 174.5,155.5C 169.749,163.337 164.749,171.004 159.5,178.5C 158.833,178.833 158.167,179.167 157.5,179.5C 152.008,159.856 146.008,140.356 139.5,121C 139.833,120.5 140.167,120 140.5,119.5C 141.901,120.521 143.235,121.521 144.5,122.5 Z"/></g>
<g><path style="opacity:1" fill="#63d0ce" d="M 200.5,120.5 C 199.505,131.988 199.172,143.655 199.5,155.5C 193.314,152.578 187.648,148.911 182.5,144.5C 187.443,136.383 192.61,128.383 198,120.5C 198.977,119.226 199.811,119.226 200.5,120.5 Z"/></g>
<g><path style="opacity:1" fill="#0e86aa" d="M 240.5,179.5 C 235.131,171.486 229.465,163.819 223.5,156.5C 223.5,156.167 223.5,155.833 223.5,155.5C 234.632,144.869 245.632,134.035 256.5,123C 255.906,122.536 255.239,122.369 254.5,122.5C 255.848,121.399 257.348,120.399 259,119.5C 253.532,139.737 247.365,159.737 240.5,179.5 Z"/></g>
<g><path style="opacity:1" fill="#9e68bc" d="M 144.5,122.5 C 156.833,129.833 169.167,137.167 181.5,144.5C 179.754,148.327 177.754,151.993 175.5,155.5C 175.167,155.5 174.833,155.5 174.5,155.5C 164.535,145.035 154.369,134.702 144,124.5C 143.308,123.563 143.475,122.897 144.5,122.5 Z"/></g>
<g><path style="opacity:1" fill="#459fc1" d="M 254.5,122.5 C 255.239,122.369 255.906,122.536 256.5,123C 245.632,134.035 234.632,144.869 223.5,155.5C 221.938,151.608 219.605,148.275 216.5,145.5C 216.5,145.167 216.5,144.833 216.5,144.5C 229.408,137.594 242.075,130.26 254.5,122.5 Z"/></g>
<g><path style="opacity:1" fill="#798ec1" d="M 181.5,144.5 C 181.833,144.5 182.167,144.5 182.5,144.5C 187.648,148.911 193.314,152.578 199.5,155.5C 199.5,155.833 199.5,156.167 199.5,156.5C 194.385,159.618 189.052,162.284 183.5,164.5C 180.862,161.526 178.195,158.526 175.5,155.5C 177.754,151.993 179.754,148.327 181.5,144.5 Z"/></g>
<g><path style="opacity:1" fill="#0fa8bc" d="M 216.5,145.5 C 219.605,148.275 221.938,151.608 223.5,155.5C 223.5,155.833 223.5,156.167 223.5,156.5C 220.5,158.833 217.833,161.5 215.5,164.5C 209.948,162.284 204.615,159.618 199.5,156.5C 199.5,156.167 199.5,155.833 199.5,155.5C 205.304,152.43 210.97,149.097 216.5,145.5 Z"/></g>
<g><path style="opacity:1" fill="#7a68af" d="M 174.5,155.5 C 174.833,155.5 175.167,155.5 175.5,155.5C 178.195,158.526 180.862,161.526 183.5,164.5C 183.5,164.833 183.5,165.167 183.5,165.5C 175.792,170.354 167.792,174.688 159.5,178.5C 164.749,171.004 169.749,163.337 174.5,155.5 Z"/></g>
<g><path style="opacity:1" fill="#1193a6" d="M 199.5,156.5 C 204.615,159.618 209.948,162.284 215.5,164.5C 215.5,164.833 215.5,165.167 215.5,165.5C 209.871,169.794 204.537,174.461 199.5,179.5C 199.5,171.833 199.5,164.167 199.5,156.5 Z"/></g>
<g><path style="opacity:1" fill="#097d96" d="M 223.5,156.5 C 229.465,163.819 235.131,171.486 240.5,179.5C 240.5,180.167 240.167,180.5 239.5,180.5C 231.873,175.013 223.873,170.013 215.5,165.5C 215.5,165.167 215.5,164.833 215.5,164.5C 217.833,161.5 220.5,158.833 223.5,156.5 Z"/></g>
<g><path style="opacity:1" fill="#607ab4" d="M 199.5,156.5 C 199.5,164.167 199.5,171.833 199.5,179.5C 194.443,174.438 189.11,169.772 183.5,165.5C 183.5,165.167 183.5,164.833 183.5,164.5C 189.052,162.284 194.385,159.618 199.5,156.5 Z"/></g>
<g><path style="opacity:1" fill="#654fa5" d="M 183.5,165.5 C 189.11,169.772 194.443,174.438 199.5,179.5C 199.5,179.833 199.5,180.167 199.5,180.5C 185.323,180.829 171.323,180.496 157.5,179.5C 158.167,179.167 158.833,178.833 159.5,178.5C 167.792,174.688 175.792,170.354 183.5,165.5 Z"/></g>
<g><path style="opacity:1" fill="#07677e" d="M 215.5,165.5 C 223.873,170.013 231.873,175.013 239.5,180.5C 226.167,180.5 212.833,180.5 199.5,180.5C 199.5,180.167 199.5,179.833 199.5,179.5C 204.537,174.461 209.871,169.794 215.5,165.5 Z"/></g>
</svg>
